<svg width="80" height="80" xmlns="http://www.w3.org/2000/svg">
    <defs>
        <g id="top-logo"><g fill="none" stroke="#fff" stroke-linecap="square" stroke-linejoin="round" stroke-width="6"><path d="M517.23 68.215a35.5 33.2 0 0 1-11.936-26.458 35.5 33.2 0 0 1 14.593-25.266M561.62 16.49a35.5 33.2 0 0 1 14.593 25.266 35.5 33.2 0 0 1-11.936 26.458M551.57 29.079a18.4 19 0 0 1 7.564 14.46 18.4 19 0 0 1-6.187 15.142M528.56 58.681a18.4 19 0 0 1-6.187-15.142 18.4 19 0 0 1 7.564-14.46"/></g><g fill="none"><path d="M540.75 40.25v41.5h-322v-.5h322" stroke="#fff" stroke-width="4.5"/><path d="M13 81.5h58zm76 0h128z" stroke="#ccc" stroke-width="5"/></g><g aria-label="OpenWebRX"><path d="M207.85 45.906c0-11.755-5.104-17.787-14.771-17.787-5.877 0-10.363 2.475-13.688 7.579v-6.574h-6.96v42.301h6.96V47.53c0-8.352 4.717-13.379 12.141-13.379 6.264 0 9.357 4.022 9.357 11.987v25.288h6.96zm-53.515.619h-24.747c.696-7.966 5.645-12.528 13.301-12.528 6.805 0 11.368 4.794 11.445 12.528zm6.96 2.01c0-12.683-7.192-20.416-18.483-20.416-12.605 0-20.725 8.662-20.725 22.581 0 13.301 8.352 21.808 21.963 21.808 5.336 0 10.595-1.082 15.621-3.248v-6.573c-4.872 2.63-9.821 3.944-15.235 3.944-9.203 0-14.461-5.104-15.08-14.693h31.939zm-54.907 1.78c0 10.44-4.64 16.394-11.832 16.394-7.192 0-11.832-5.955-11.832-16.395s4.64-16.395 11.832-16.395c7.192 0 11.832 5.955 11.832 16.395zm-23.664 14.77c2.939 5.027 7.347 7.424 13.533 7.424 10.053 0 17.323-8.661 17.323-22.195S106.31 28.12 96.257 28.12c-6.187 0-10.595 2.397-13.533 7.424v-6.419h-6.96v58.387h6.96zm-44.389-51.04c-15.699 0-26.139 11.291-26.139 29.232 0 18.02 10.44 29.232 26.139 29.232s26.061-11.29 26.061-29.232-10.363-29.232-26.061-29.232zm0 6.187c10.827 0 18.019 8.506 18.019 23.045s-7.192 23.045-18.019 23.045-18.096-8.507-18.096-23.045 7.27-23.045 18.096-23.045z" fill="#ccc"/><path d="m480.99 42.658 18.792-27.608h-15.235l-12.296 18.173-12.373-18.173h-15.157l18.792 27.608-19.565 28.768h15.235l13.069-19.256 13.147 19.256h15.157zm-76.405 7.424h4.099c5.026 0 7.269 2.01 9.898 7.347l6.883 13.997h15.467l-7.888-16.008c-2.939-5.955-5.8-9.358-10.13-10.363 7.268-2.243 10.826-7.038 10.826-14.461 0-10.904-6.883-15.544-21.499-15.544h-22.195v56.376h14.54zm6.11-10.053h-6.11V25.568h6.11c5.954 0 8.506 1.933 8.506 7.192s-2.552 7.27-8.507 7.27zm-62.873-4.485V12.653h-6.96v58.773h6.96v-6.342c2.939 5.027 7.347 7.424 13.533 7.424 10.053 0 17.323-8.66 17.323-22.195s-7.269-22.195-17.323-22.195c-6.186 0-10.595 2.398-13.533 7.424zm23.664 14.77c0 10.44-4.64 16.396-11.832 16.396s-11.832-5.955-11.832-16.395 4.64-16.395 11.832-16.395 11.832 5.954 11.832 16.395zm-48.72-3.789H298.02c.696-7.965 5.646-12.528 13.301-12.528 6.806 0 11.368 4.795 11.445 12.528zm6.96 2.011c0-12.683-7.192-20.416-18.483-20.416-12.605 0-20.725 8.661-20.725 22.581 0 13.301 8.352 21.808 21.963 21.808 5.336 0 10.595-1.083 15.621-3.248v-6.573c-4.872 2.63-9.821 3.944-15.235 3.944-9.202 0-14.46-5.104-15.08-14.693h31.94zm-112.75-33.485 14.152 56.376h9.59l11.987-48.952 11.909 48.952h9.589l14.152-56.376h-7.733L268.79 62.688l-11.832-47.637h-8.584l-11.832 47.637-11.832-47.637z" fill="#fff"/></g></g>
        <g id="panel-help" stroke="#000" stroke-width="24" fill="#fff"><path d="M484-247q16 0 27-11t11-27q0-16-11-27t-27-11q-16 0-27 11t-11 27q0 16 11 27t27 11Zm-35-146h59q0-26 6.5-47.5T555-490q31-26 44-51t13-55q0-53-34.5-85T486-713q-49 0-86.5 24.5T345-621l53 20q11-28 33-43.5t52-15.5q34 0 55 18.5t21 47.5q0 22-13 41.5T508-512q-30 26-44.5 51.5T449-393Zm31 313q-82 0-155-31.5t-127.5-86Q143-252 111.5-325T80-480q0-83 31.5-156t86-127Q252-817 325-848.5T480-880q83 0 156 31.5T763-763q54 54 85.5 127T880-480q0 82-31.5 155T763-197.5q-54 54.5-127 86T480-80Zm0-60q142 0 241-99.5T820-480q0-142-99-241t-241-99q-141 0-240.5 99T140-480q0 141 99.5 240.5T480-140Zm0-340Z"/></g>
        <g id="panel-log" stroke="#000" stroke-width="24" fill="#fff"><path d="M180-120q-24 0-42-18t-18-42v-600q0-24 18-42t42-18h462l198 198v462q0 24-18 42t-42 18H180Zm0-60h600v-428.571H609V-780H180v600Zm99-111h402v-60H279v60Zm0-318h201v-60H279v60Zm0 159h402v-60H279v60Zm-99-330v171.429V-780v600-600Z"/></g>
        <g id="panel-status" stroke="#000" stroke-width="24" fill="#fff"><path d="M407-325q23 23 66.5 21.5T537-336l216-339-335 219q-30 20-32 64t21 67Zm71-474q57 0 119 18.5T716-717l-52 37q-45-30-96.5-44.5T477.978-739q-140.472 0-239.225 100.215Q140-538.569 140-396.017 140-351 152.5-305q12.5 46 35.5 85h579q22-36 35-84t13-94q0-42-12.5-90.5T758-578l39-52q38 56 57 112.5T875-404q2 60-12 113t-41 98q-12 23-25.5 28t-33.5 5H192q-17 0-33.5-8.5T134-193q-26-48-40-97.5T80-396q0-83 31.5-156.5t85.5-128Q251-735 323.68-767T478-799Zm-9 331Z"/></g>
        <g id="panel-receiver" stroke="#000" stroke-width="24" fill="#fff"><path d="M140-80q-24 0-42-18t-18-42v-511q0-22 15-38.5t35-24.5l496-200 19 50-359 144h534q24 0 42 18t18 42v520q0 24-18 42t-42 18H140Zm0-60h680v-310H140v310Zm179.183-63Q360-203 388-231.183q28-28.183 28-69T387.817-369q-28.183-28-69-28T250-368.817q-28 28.183-28 69T250.183-231q28.183 28 69 28ZM140-510h520v-60h60v60h100v-150H140v150Zm0 370v-310 310Z"/></g>
        <g id="panel-map" stroke="#000" stroke-width="24" fill="#fff"><path d="m612-120-263-93-179 71q-17 9-33.5-1T120-173v-558q0-13 7.5-23t19.5-15l202-71 263 92 178-71q17-8 33.5 1.5T840-788v565q0 11-7.5 19T814-192l-202 72Zm-34-75v-505l-196-66v505l196 66Zm60 0 142-47v-512l-142 54v505Zm-458-12 142-54v-505l-142 47v512Zm458-493v505-505Zm-316-66v505-505Z"/></g>
        <g id="panel-files" stroke="#000" stroke-width="24" fill="#fff"><path d="M180-120q-24 0-42-18t-18-42v-600q0-24 18-42t42-18h600q24 0 42 18t18 42v600q0 24-18 42t-42 18H180Zm0-60h600v-600H180v600Zm56-97h489L578-473 446-302l-93-127-117 152Zm-56 97v-600 600Z"/></g>
        <g id="panel-settings" stroke="#000" stroke-width="24" fill="#fff"><path d="m388-80-20-126q-19-7-40-19t-37-25l-118 54-93-164 108-79q-2-9-2.5-20.5T185-480q0-9 .5-20.5T188-521L80-600l93-164 118 54q16-13 37-25t40-18l20-127h184l20 126q19 7 40.5 18.5T669-710l118-54 93 164-108 77q2 10 2.5 21.5t.5 21.5q0 10-.5 21t-2.5 21l108 78-93 164-118-54q-16 13-36.5 25.5T592-206L572-80H388Zm48-60h88l14-112q33-8 62.5-25t53.5-41l106 46 40-72-94-69q4-17 6.5-33.5T715-480q0-17-2-33.5t-7-33.5l94-69-40-72-106 46q-23-26-52-43.5T538-708l-14-112h-88l-14 112q-34 7-63.5 24T306-642l-106-46-40 72 94 69q-4 17-6.5 33.5T245-480q0 17 2.5 33.5T254-413l-94 69 40 72 106-46q24 24 53.5 41t62.5 25l14 112Zm44-210q54 0 92-38t38-92q0-54-38-92t-92-38q-54 0-92 38t-38 92q0 54 38 92t92 38Zm0-130Z"/></g>
        <g id="zoom-in" stroke="#fff"><circle cx="31.75" cy="32" r="27.5" fill="none" stroke-linecap="round" stroke-linejoin="round" stroke-width="8"/><path d="m57.147 47.242 20.644 20.645a4 4 90 0 1 0 5.657l-3.748 3.748a4 4 180 0 1-5.656 0L47.743 56.647" fill="#fff" stroke-width="2.1"/><path d="M31.75 18.5v27M18.25 32h27" fill="none" stroke-linecap="round" stroke-width="10"/></g>
        <g id="zoom-out" stroke="#fff"><circle cx="31.75" cy="32" r="27.5" fill="none" stroke-linecap="round" stroke-linejoin="round" stroke-width="8"/><path d="m57.147 47.242 20.644 20.645a4 4 90 0 1 0 5.657l-3.748 3.748a4 4 180 0 1-5.656 0L47.743 56.647" fill="#fff" stroke-width="2.1"/><path d="M18.25 32h27" fill="none" stroke-linecap="round" stroke-width="10"/></g>
        <g id="zoom-out-total" stroke="#fff"><circle cx="44.001" cy="51.307" r="16.326" fill="none" stroke-linecap="round" stroke-linejoin="round" stroke-width="4.75"/><path d="M59.079 60.356 71.6 72.877a2 2 90 0 1 0 2.829l-2.755 2.754a2 2 180 0 1-2.828 0L53.496 65.94" fill="#fff" stroke-width="1.247"/><path d="m20.893 1.244-16.199 16.9 16.199 16.9V21.698H59.5v13.346l16.199-16.9L59.5 1.244V14.7H20.893z" fill="#fff"/></g>
        <g id="zoom-in-total" stroke="#fff"><circle cx="44.701" cy="51.307" r="16.326" fill="none" stroke-linecap="round" stroke-linejoin="round" stroke-width="4.75"/><path d="M59.779 60.356 72.3 72.877a2 2 90 0 1 0 2.829l-2.755 2.754a2 2-180 0 1-2.828 0L54.196 65.94" fill="#fff" stroke-width="1.247"/><path d="M4.8 1.244v33.801L17.595 21.7H62.4l12.793 13.346v-33.8L62.296 14.698H17.698z" fill="#fff"/></g>
        <g id="speaker" stroke="#fff"><path d="M33.5 7.15 16.74 25.201H2.65v31.7h16.041L33.5 72.848z" fill="#fff" stroke-width="2.1"/><g fill="none"><path d="M46.336 16.041A20 30 0 0 1 54.3 40a20 30 0 0 1-7.964 23.959" stroke-width="3"/><path d="M52.716 9.652A30.6 38 0 0 1 64.9 40a30.6 38 0 0 1-12.184 30.348" stroke-width="4.2"/><path d="M59.035 2.065A41.1 47.5 0 0 1 75.4 40a41.1 47.5 0 0 1-16.365 37.935" stroke-width="5.4"/></g></g>
        <g id="speaker-muted"><path d="M33.5 7.15 16.74 25.201H2.65v31.7h16.041L33.5 72.848z" fill="#fff" stroke="#fff" stroke-width="2.1"/></g>
        <g id="waterfall-auto"><path d="M33.512 72.05s3.393-64.129 8.24-64.093c4.48.034 4.392 28.286 9.98 28.198 4.775-.074 5.279-13.721 6.33-17.88 1.013-4.004 2.915-5.172 5.321-4.894 2.993.346 8.205 5.925 10.588 13.761 4.16 13.677 5.53 44.907 5.53 44.907z" fill="#ccc" stroke="#ccc"/><path d="M29.3 68.8 18.4 54 7.5 68.8zM7.5 11.2 18.4 26l10.9-14.8zM18.4 26v28" fill="#fff" stroke="#fff" stroke-width="7.5"/></g>
        <g id="waterfall-default"><path d="M36.356 75.295s3.187-34.502 7.74-34.482c4.207.018 4.125 15.218 9.374 15.171 4.485-.04 4.958-7.382 5.945-9.62.951-2.154 2.738-2.782 4.998-2.632 2.812.186 7.707 3.187 9.945 7.403 3.906 7.358 5.193 24.16 5.193 24.16z" fill="#ccc" stroke="#ccc" stroke-width=".711"/><path d="M18.4 25.424v29.075m-10.9 0L18.4 69.3l10.9-14.801zm10.9-43.875L7.5 25.425h21.801z" fill="#fff" stroke="#fff" stroke-width="7.5"/></g>
        <g id="squelch" fill="#fff" stroke-width=".767"><path d="M33.333 24.7c-.058-14.132-5.913-21.9-16.58-21.9-10.145 0-16 7.673-16 20.963 0 10.575 3.305 15.722 11.884 18.343l5.913 1.872c5.797 1.778 7.942 4.399 7.942 9.92 0 5.71-3.246 9.172-8.521 9.172-5.913 0-9.218-4.024-9.508-11.324H0C.521 66.345 6.724 74.3 17.506 74.3c10.899 0 17.333-8.142 17.333-22.087 0-10.762-3.362-16.378-11.188-18.81l-6.609-2.06c-6.203-1.965-8-3.93-8-8.89 0-5.148 2.782-8.423 7.304-8.423 5.507 0 8.58 3.743 8.87 10.669zM75.362 62.508C78.202 56.893 80 47.534 80 38.363c0-10.014-2.203-19.653-5.913-26.11C70.435 5.887 65.681 2.8 59.653 2.8S48.87 5.888 45.218 12.252C41.45 18.71 39.305 28.35 39.305 38.55s2.203 19.84 5.913 26.298c3.652 6.364 8.406 9.452 14.435 9.452 4.405 0 7.594-1.404 10.956-4.68l4.986 7.581L80 69.621zM64.638 46.13l-4.406 7.58 4.464 6.833c-1.391 1.123-3.246 1.778-5.101 1.778C52.638 62.321 48 52.869 48 38.549c0-14.412 4.58-23.771 11.652-23.771s11.652 9.358 11.652 23.864c0 5.615-.638 10.67-1.913 14.787z"/></g>
        <g id="trashcan"><path d="M56.667 13.333V6.666A6.67 6.67 0 0 0 50 0H30a6.67 6.67 0 0 0-6.666 6.666v6.667H6.667V20h6.666v53.333A6.67 6.67 0 0 0 20 79.999h40a6.67 6.67 0 0 0 6.667-6.666V20h6.666v-6.667zM30 6.666h20v6.667H30zm30 66.667H20V20h40zM36.667 26.666H30v40h6.667zm13.333 0h-6.667v40H50z" fill="#fff"/></g>
        <g id="edit"><path d="m52.5 7.5-45 45v20h20l45-45zm12.93 20-4.697 4.697-12.93-12.93L52.5 14.57zM15.302 51.768l4.06-4.06c1.533 1.125 3.575 2.002 5.81 2.002 2.148 0 4.453-.8 6.595-2.942l10-10c2.52-2.52 4.622-7.728.968-12.43l1.535-1.535 12.93 12.93L28.23 64.698zm22.93-18.535-10 10c-2.062 2.058-4.007 1.595-5.27.875L39.14 27.93c1.465 2.485-.27 4.643-.907 5.303zM12.5 56.035 23.965 67.5H12.5z" fill="#fff"/></g>
        <g id="bookmark"><path d="M62.5 0h-45A7.5 7.5 0 0 0 10 7.5V80l30-17.5L70 80V7.5A7.5 7.5 0 0 0 62.5 0zm0 66.942L40 53.817 17.5 66.942V8.437a.938.938 0 0 1 .938-.938h43.124c.518 0 .938.42.938.937z" fill="#fff"/></g>
        <g id="rx-details-arrow-down"><path d="M5 0C2.5 0 0 2.5 0 5v7h43V5c0-2.5-2.5-5-5-5zm8 4h17l-8.5 6.5z" fill="#999" fill-opacity=".196"/><path d="M13 4h17l-8.5 6.5z" fill="#848484" fill-opacity=".592"/></g>
        <g id="rx-details-arrow-up"><path d="M5 0C2.5 0 0 2.5 0 5v7h43V5c0-2.5-2.5-5-5-5zm16.5 3L30 9.5H13z" fill="#999" fill-opacity=".196"/><path d="M30 9.5H13L21.5 3z" fill="#848484" fill-opacity=".592"/></g>
        <g id="maps-pin" transform="translate(-965.78 -331.788) scale(1.1856)"><path d="M817.11 282.97c-1.258 1.343-2.046 3.299-2.016 5.139.064 3.845 1.797 5.3 4.569 10.592.998 2.328 2.04 4.792 3.031 8.873.138.602.272 1.16.334 1.21.062.048.197-.513.334-1.115.991-4.081 2.033-6.543 3.032-8.872 2.77-5.291 4.504-6.747 4.568-10.592.03-1.84-.76-3.797-2.018-5.14-1.437-1.534-3.605-2.67-5.916-2.717-2.311-.047-4.48 1.088-5.918 2.622z" fill="#ff4646" stroke="#d73534"/><circle cx="823.03" cy="288.25" r="3.035" fill="#590000"/></g>
        <g id="play-button"><circle cx="350" cy="350" r="330" fill="none" stroke="#fff" stroke-width="36"/><path d="M195 211v278l366-139z" fill="#fff"/></g>
        <g id="meta-mute" stroke="#fff" stroke-width="5"><path stroke-linejoin="round" style="paint-order:fill" fill="none" d="m21.989 47.699 17.4 15.051V13.769L22.235 28.606H6v19.093z" transform="matrix(5.3513 0 0 5.3723 -.73 -1.542)"/><path d="m48.652 50.27 20.743-24.299M69.395 50.27 48.652 25.971" stroke-linecap="round" transform="matrix(5.3513 0 0 5.3723 -.73 -1.542)"/></g>
        <g id="waterfall-continuous"><g stroke="#fff" stroke-width="8"><path d="M5 40A35 35 0 0 1 26.606 7.664a35 35 0 0 1 38.143 7.587" fill="none"/><path d="m68.284 11.716 2.828 9.9-9.899-2.829z" fill="#fff"/></g><path d="m48.008 48.144 2.816 8.624h9.035L45.075 14h-9.739L20.141 56.768h8.976l2.875-8.624zm-2.405-7.333H34.456l5.573-16.72z" fill="#fff" aria-label="A"/><g stroke="#fff" stroke-width="8"><path d="M75 40a35 35 0 0 1-21.606 32.336 35 35 0 0 1-38.143-7.587" fill="none"/><path d="m11.716 68.284-2.828-9.9 9.899 2.829z" fill="#fff"/></g></g>
        <g id="noise-reduce" fill="#fff" stroke-width=".767"><path d="m 36.606611,74.237282 -9.008789,0 L 11.11833,30.951149 q 0.659179,3.164062 0.659179,4.96582 l 0,38.320313 -10.0195308,0 0,-68.7744143 9.0087888,0 16.479492,42.4072263 Q 26.58708,44.706032 26.58708,42.904274 l 0,-37.4414063 10.019531,0 0,68.7744143 z"/><path d="m 80.200361,74.237282 -10.722656,0 L 58.139814,42.28904 q 0,0 0,-6.196289 l 10.107422,0 0,-21.796875 -12.963867,0 0,59.941406 -10.283203,0 0,-68.7744143 27.290039,0 q 6.196289,0 6.196289,6.3281253 l 0,25.004883 q 0,4.350585 -2.944336,5.625 -1.582031,0.659179 -6.679688,0.659179 l 11.337891,31.157227 z"/></g>
        <g id="disabled" fill="#fff" stroke-width=".767"><path d="M 59.826868,-0.58229828 28.318079,81.155983 l -7.602539,0 31.376953,-81.73828128 7.734375,0 z"/></g>
        <g id="tuning-step" fill="#fff" stroke="#fff" stroke-width="4.0"><path d="M 3.75,67.704399 22.378472,40.00535 3.75,12.306311 Z M 76.25,12.306311 57.621528,40.00535 76.25,67.704399 Z m -18.628472,27.699039 -35.243056,0"/></g>
        <g id="left" fill="#fff" stroke="#fff" stroke-width="4.0"><path d="M 55,15 55,65 15,40 Z"/></g>
        <g id="right" fill="#fff" stroke="#fff" stroke-width="4.0"><path d="M 25,15 25,65 65,40 Z"/></g>
        <g id="spectrum" fill="#0000" stroke="#fff" stroke-width="7"><path d="M 9.7579071,55.000065 C 9.7579071,55.000065 15,10 25.288469,9.8661268 35,10 45,70 54.985123,70.170795 65,70 69.983185,25.030854 69.983185,25.030854"/><path d="m 0,40 80,0"/></g>
        <g id="scanner-running"><g stroke="#fff" stroke-width="8"><path d="M5 40A35 35 0 0 1 26.606 7.664a35 35 0 0 1 38.143 7.587" fill="none"/><path d="m68.284 11.716 2.828 9.9-9.899-2.829z" fill="#fff"/></g><path d="m 27.185152,59.581257 0,-7.177735 q 0.966797,0.878907 2.285156,1.582032 1.347657,0.703125 2.841797,1.201172 1.494141,0.46875 2.988281,0.732421 1.494141,0.263672 2.753907,0.263672 4.394531,0 6.533203,-1.464843 2.167969,-1.464844 2.167969,-4.248047 0,-1.494141 -0.732422,-2.578125 -0.703125,-1.113282 -1.992188,-2.021485 -1.289062,-0.908203 -3.046875,-1.728515 -1.728515,-0.84961 -3.720703,-1.757813 -2.138672,-1.142578 -3.984375,-2.314453 -1.845703,-1.171875 -3.222656,-2.578125 -1.347656,-1.435547 -2.138672,-3.222656 -0.761719,-1.78711 -0.761719,-4.189453 0,-2.958985 1.31836,-5.126953 1.347656,-2.197266 3.515625,-3.603516 2.197265,-1.435547 4.980468,-2.109375 2.783203,-0.703125 5.683594,-0.703125 6.591797,0 9.609375,1.494141 l 0,6.884765 q -3.574219,-2.578125 -9.199219,-2.578125 -1.552734,0 -3.105468,0.292969 -1.523438,0.292969 -2.753907,0.966797 -1.201172,0.673828 -1.96289,1.728515 -0.761719,1.054688 -0.761719,2.548829 0,1.40625 0.585937,2.43164 0.585938,1.025391 1.699219,1.875 1.142578,0.84961 2.753906,1.669922 1.640625,0.791016 3.779297,1.728516 2.197266,1.142578 4.13086,2.402343 1.96289,1.259766 3.427734,2.783204 1.494141,1.523437 2.34375,3.398437 0.878906,1.845703 0.878906,4.21875 0,3.193359 -1.289062,5.390625 -1.289063,2.197266 -3.486328,3.574219 -2.167969,1.376953 -5.009766,1.992187 -2.841797,0.615235 -6.005859,0.615235 -1.054688,0 -2.607422,-0.175782 -1.523438,-0.146484 -3.134766,-0.46875 -1.611328,-0.292968 -3.046875,-0.732421 -1.435547,-0.439454 -2.314453,-0.996094 z" fill="#fff"/><g stroke="#fff" stroke-width="8"><path d="M75 40a35 35 0 0 1-21.606 32.336 35 35 0 0 1-38.143-7.587" fill="none"/><path d="m11.716 68.284-2.828-9.9 9.899 2.829z" fill="#fff"/></g></g>
        <g id="opacity" fill="#fff" stroke="#fff" stroke-width="8"><path d="M360-120H200q-33 0-56.5-23.5T120-200v-560q0-33 23.5-56.5T200-840h160v80H200v560h160v80Zm80 80v-880h80v880h-80Zm160-80v-80h80v80h-80Zm0-640v-80h80v80h-80Zm160 640v-80h80q0 33-23.5 56.5T760-120Zm0-160v-80h80v80h-80Zm0-160v-80h80v80h-80Zm0-160v-80h80v80h-80Zm0-160v-80q33 0 56.5 23.5T840-760h-80Z"/></g>
        <g id="theme-chooser" fill="#fff" stroke="#fff" stroke-width="8"><path d="M480-120q-133 0-226.5-92T160-436q0-65 25-121.5T254-658l226-222 226 222q44 44 69 100.5T800-436q0 132-93.5 224T480-120ZM242-400h474q12-72-13.5-123T650-600L480-768 310-600q-27 26-53 77t-15 123Z"/></g>
        <g id="wf-theme-chooser" fill="#fff" stroke="#fff" stroke-width="8"><path d="M480-120q-133 0-226.5-92.5T160-436q0-66 25-122t69-100l226-222 226 222q44 44 69 100t25 122q0 131-93.5 223.5T480-120Zm0-80v-568L310-600q-35 33-52.5 74.5T240-436q0 97 70 166.5T480-200Z"/></g>
    </defs>
</svg>
